<?xml version="1.0" encoding="UTF-8"?><svg id="Layer_2" xmlns="http://www.w3.org/2000/svg" viewBox="0 0 1633.81 421.85"><defs><style>.cls-1{fill:#00c0ff;}.cls-2{fill:#0097ff;}.cls-3{fill:#141414;}.cls-4{fill:#38384c;}.cls-5{fill:#3a62ff;}.cls-6{fill:#4a38ee;}</style></defs><g id="Layer_1-2"><g><g><path class="cls-6" d="M1593.41,340.46c-17.14-.08-37.62,8.73-67.75,20.56h0c.09-.02,37.54-9.12,58.19-9.12,26.57,0,32.6,9.05,32.64,9.13-1.41-12.34-5.87-20.48-23.09-20.56Z"/><path class="cls-5" d="M1602.44,326.15c-16.24,0-48.36,18.94-76.77,34.87l.04-.02c30.11-11.82,50.57-20.63,67.7-20.54,17.22,.08,21.68,8.22,23.09,20.56h0s.32-5.07,.32-12.25c0-8.41,.21-22.63-14.39-22.63Z"/><path class="cls-2" d="M1616.51,361.02s5.89-31.29,5.89-40.16c0-3.37-.51-6.87-2.54-8.9-2-2-4.58-2.8-7.39-2.8-8.93,0-20.56,1.83-86.79,51.86,28.42-15.93,60.53-34.87,76.77-34.87,14.59,0,14.39,14.22,14.39,22.63,0,7.18-.32,12.25-.32,12.25Z"/><path class="cls-1" d="M1633.07,292.65c-.63-1.17-1.55-2.21-2.74-2.83-1.26-.66-2.95-.96-5.36-.86-2.66,.11-7.8,.47-10.41,.67-10.34,.8-17.48,5.27-25.35,12.52-19.08,17.57-54.74,50.59-63.54,58.87h0c66.23-50.03,77.86-51.86,86.79-51.86,2.81,0,5.39,.8,7.39,2.8,2.04,2.04,2.54,5.53,2.54,8.9,0,8.87-5.89,40.16-5.89,40.16,0,0,11.49-42.04,16.86-61.8,.71-2.62,.55-5.02-.29-6.57Z"/><g><path class="cls-3" d="M1499.06,401.77c9.42-1.7,15.91-7.42,15.91-16.76,0-11.2-9.27-17.23-21.86-17.23h-22.04c-5.12,0-6.98,.53-8.85,1.53-1.87,1-3.34,2.47-4.34,4.34-1,1.87-1.53,3.73-1.53,8.85v36.74c0,.9,.09,1.23,.27,1.56,.18,.33,.44,.59,.77,.77,.33,.18,.66,.27,1.56,.27h4.07c.9,0,1.23-.09,1.56-.27,.33-.18,.59-.44,.77-.77,.18-.33,.27-.66,.27-1.56h0v-39.46s0-.04,0-.05c0-1.31,.14-1.8,.41-2.29,.27-.5,.65-.88,1.15-1.15s.99-.41,2.34-.41h22.98c7.72,0,12.98,2.47,12.98,9.19s-5.25,9.19-12.98,9.19h-6.41c-1.72,0-2.66,2.01-1.55,3.33l3.87,4.63,15.65,18.32c.71,.83,1.74,1.3,2.83,1.3h6c1.45,0,2.23-1.71,1.27-2.8l-15.09-17.28Z"/><path class="cls-3" d="M1389.15,413.93c-.33-.18-.66-.27-1.56-.27h-33.36c-1.36,0-1.85-.14-2.34-.41-.5-.27-.88-.65-1.15-1.15-.27-.5-.41-.99-.41-2.34v-39.38h0c0-.9-.09-1.23-.27-1.56-.18-.33-.44-.59-.77-.77-.33-.18-.66-.27-1.56-.27h-4.07c-.9,0-1.23,.09-1.56,.27-.33,.18-.59,.44-.77,.77-.18,.33-.27,.66-.27,1.56v36.74c0,5.12,.53,6.98,1.53,8.85,1,1.87,2.47,3.34,4.34,4.34,1.87,1,3.73,1.53,8.85,1.53h31.8c.9,0,1.23-.09,1.56-.27,.33-.18,.59-.44,.77-.77,.18-.33,.27-.66,.27-1.56v-2.99c0-.9-.09-1.23-.27-1.56-.18-.33-.44-.59-.77-.77Z"/><path class="cls-3" d="M1327.43,368.05c-.33-.18-.66-.27-1.56-.27h-35.58c-5.12,0-6.98,.53-8.85,1.53-1.87,1-3.34,2.47-4.34,4.34-1,1.87-1.53,3.73-1.53,8.85v36.74c0,.9,.09,1.23,.27,1.56,.18,.33,.44,.59,.77,.77,.33,.18,.66,.27,1.56,.27h4.07c.9,0,1.23-.09,1.56-.27,.33-.18,.59-.44,.77-.77,.18-.33,.27-.66,.27-1.56v-16.51c0-.9,.09-1.23,.27-1.56,.18-.33,.44-.59,.77-.77,.33-.18,.66-.27,1.56-.27h25.53c.9,0,1.23-.09,1.56-.27,.33-.18,.59-.44,.77-.77,.18-.33,.27-.66,.27-1.56v-3.07c0-.9-.09-1.23-.27-1.56-.18-.33-.44-.59-.77-.77-.33-.18-.66-.27-1.56-.27h-25.53c-.9,0-1.23-.09-1.56-.27-.33-.18-.59-.44-.77-.77-.18-.33-.27-.66-.27-1.56v-9.41c0-1.36,.14-1.85,.41-2.34,.27-.5,.65-.88,1.15-1.15,.5-.27,.99-.41,2.34-.41h37.15c.9,0,1.23-.09,1.56-.27,.33-.18,.59-.44,.77-.77,.18-.33,.27-.66,.27-1.56v-2.99c0-.9-.09-1.23-.27-1.56-.18-.33-.44-.59-.77-.77Z"/><path class="cls-3" d="M1442.65,367.78h-5.41c-1.17,0-2.28,.55-2.98,1.49l-17.92,24c-.72,.96-2.16,.97-2.88,0l-18.06-24.02c-.7-.93-1.8-1.48-2.97-1.48h-5.49c-1.39,0-2.19,1.59-1.35,2.71l23.89,31.71c.47,.63,.73,1.39,.73,2.17v14.89c0,.9,.09,1.23,.27,1.56,.18,.33,.44,.59,.77,.77,.33,.18,.66,.27,1.56,.27h4.07c.9,0,1.23-.09,1.56-.27,.33-.18,.59-.44,.77-.77,.18-.33,.27-.66,.27-1.56v-14.89c0-.78,.25-1.54,.72-2.16l23.82-31.71c.84-1.11,.04-2.7-1.35-2.7Z"/><path class="cls-3" d="M1224.95,367.3h-5.46c-1.18,0-2.3,.56-3.01,1.51l-18.07,24.21c-.73,.97-2.18,.97-2.91,0l-18.22-24.23c-.71-.94-1.82-1.5-3-1.5h-5.54c-1.41,0-2.21,1.61-1.36,2.73l24.1,31.99c.47,.63,.73,1.4,.73,2.19v15.02c0,.91,.09,1.24,.27,1.58,.18,.33,.44,.59,.77,.77,.33,.18,.66,.27,1.58,.27h4.11c.91,0,1.24-.09,1.58-.27,.33-.18,.6-.44,.77-.77,.18-.33,.27-.66,.27-1.58v-15.02c0-.79,.26-1.55,.73-2.18l24.03-31.99c.84-1.12,.04-2.73-1.36-2.73Z"/><path class="cls-3" d="M1159.27,404.82c-.31-2.59-1.01-4.79-2.24-6.6-1.32-1.98-3.21-3.52-5.72-4.62-.44-.13-.75-.57-.75-.57,0,0,.22-.4,.75-.57,1.14-.53,2.11-1.28,2.95-2.24,.04-.09,.13-.13,.18-.22,2.64-3.21,3.52-7.43,2.51-11.56-.05-.22-.13-.44-.22-.66-.88-2.86-2.81-5.28-5.32-6.9-.62-.44-1.23-.79-1.89-1.1-2.86-1.32-6.11-1.93-9.81-1.98h-19.79c-2.9,0-4.75,.18-6.16,.53-1.06,.22-1.89,.57-2.68,1.01-1.89,1.01-3.34,2.46-4.35,4.35-1.01,1.85-1.54,3.69-1.54,8.84v24.62c0,5.14,.53,6.99,1.54,8.84,1.01,1.89,2.46,3.34,4.35,4.35,1.67,.88,3.25,1.41,7.08,1.49h22.21c3.3,0,6.33-.53,9.1-1.49,.84-.31,1.63-.66,2.37-1.01,2.55-1.32,4.49-3.12,5.76-5.41,.13-.22,.22-.44,.31-.66,1.27-2.46,1.71-5.23,1.36-8.44Zm-13.28,7.69c-.62,.31-1.27,.57-2.02,.75-1.32,.31-2.73,.48-4.18,.48-3.96,.04-7.91,.04-11.87,.04h-10.36c-.75-.06-1.13-.21-1.53-.41-.48-.26-.88-.62-1.14-1.14-.18-.35-.31-.7-.35-1.45-.03-.15-.03-.36-.03-.58v-30.69c0-.21,0-.42,.03-.58,.04-.75,.18-1.1,.35-1.45,.26-.53,.66-.88,1.14-1.14,.53-.26,1.01-.44,2.37-.44h21.26c-.14,0-.26-.02-.41-.02-5.98-.04-12.09-.04-18.03-.04h.01c5.94,0,12.05,0,18.03,.04,1.41,0,2.55,.13,3.6,.35,1.14,.31,2.07,.75,2.81,1.28,2.42,1.8,2.81,4.66,2.29,7.17-.62,2.73-2.46,4.44-5.58,5.06-.84,.18-1.76,.26-2.95,.26-1.19,.04-2.73,.04-4.35,.04h-7.78c-.75,0-1.41,.66-1.41,1.41v5.01c0,.79,.66,1.41,1.41,1.41h12.09c2.2,0,3.87,.26,5.41,.79,1.8,.66,3.17,1.63,4.05,2.95,.44,.66,.75,1.45,.92,2.29,.04,.13,.04,.26,.09,.4,.7,3.74-.79,6.73-3.87,8.22Z"/></g></g><g><path class="cls-4" d="M49.35,70.9l1.72,19.83c11.66-15.3,27.74-22.96,48.26-22.96,17.59,0,30.74,5.26,39.43,15.77,8.69,10.52,13.2,26.34,13.51,47.47v108.85h-52.78v-106.66c0-8.53-1.72-14.81-5.15-18.82-3.44-4.01-9.68-6.01-18.74-6.01-10.31,0-17.96,4.06-22.96,12.18v119.31H0V70.9H49.35Z"/><path class="cls-4" d="M251.31,243c-25.92,0-46.91-7.73-62.94-23.19-16.03-15.46-24.05-35.58-24.05-60.36v-4.37c0-17.28,3.2-32.53,9.6-45.76,6.41-13.22,15.75-23.45,28.03-30.68,12.28-7.24,26.86-10.86,43.73-10.86,23.74,0,42.48,7.37,56.22,22.1,13.74,14.73,20.61,35.27,20.61,61.61v20.46h-104.63c1.87,9.48,5.99,16.92,12.34,22.33,6.35,5.42,14.57,8.12,24.67,8.12,16.66,0,29.67-5.83,39.04-17.49l24.05,28.42c-6.56,9.06-15.85,16.27-27.88,21.63-12.02,5.36-24.96,8.04-38.81,8.04Zm-5.93-134.62c-15.41,0-24.57,10.21-27.49,30.61h53.1v-4.06c.21-8.43-1.93-14.97-6.4-19.6-4.48-4.63-10.88-6.95-19.21-6.95Z"/><path class="cls-4" d="M477.79,170.53l17.02-99.63h50.44l-39.82,168.97h-44.51l-27.95-100.26-28.11,100.26h-44.51l-39.82-168.97h50.44l16.71,101.98,26.86-101.98h36.7l26.55,99.63Z"/><path class="cls-4" d="M640.7,192.4c0-4.47-2.34-8.07-7.03-10.78-4.69-2.71-13.59-5.52-26.7-8.43-13.12-2.91-23.95-6.74-32.48-11.48-8.54-4.74-15.05-10.49-19.52-17.26-4.48-6.77-6.72-14.52-6.72-23.27,0-15.51,6.4-28.29,19.21-38.34,12.81-10.05,29.57-15.07,50.29-15.07,22.28,0,40.19,5.05,53.72,15.15,13.53,10.1,20.3,23.37,20.3,39.82h-52.78c0-13.53-7.13-20.3-21.39-20.3-5.52,0-10.15,1.54-13.9,4.61-3.75,3.07-5.62,6.9-5.62,11.48s2.29,8.49,6.87,11.4c4.58,2.92,11.89,5.31,21.94,7.18,10.05,1.87,18.87,4.12,26.47,6.72,25.4,8.75,38.1,24.42,38.1,47.01,0,15.41-6.85,27.95-20.54,37.64-13.69,9.68-31.41,14.52-53.17,14.52-14.47,0-27.38-2.6-38.73-7.81-11.35-5.2-20.2-12.28-26.55-21.24-6.35-8.95-9.53-18.37-9.53-28.27h49.19c.21,7.81,2.81,13.51,7.81,17.1,5,3.6,11.4,5.39,19.21,5.39,7.18,0,12.57-1.46,16.16-4.37,3.6-2.91,5.39-6.72,5.39-11.4Z"/><path class="cls-4" d="M755.68,89.02c11.24-14.16,25.61-21.24,43.1-21.24,18.63,0,32.69,5.52,42.17,16.55,9.47,11.04,14.31,27.33,14.52,48.88v106.66h-52.78v-105.41c0-8.95-1.82-15.54-5.47-19.76-3.65-4.21-9.84-6.32-18.58-6.32-10.83,0-18.48,3.44-22.96,10.31v121.19h-52.63V0h52.63V89.02Z"/><path class="cls-4" d="M866.28,153.82c0-16.87,3.28-31.88,9.84-45.06,6.56-13.17,15.98-23.29,28.27-30.37,12.28-7.08,26.7-10.62,43.26-10.62,25.3,0,45.23,7.83,59.81,23.5,14.57,15.67,21.86,36.99,21.86,63.95v1.87c0,26.34-7.31,47.24-21.94,62.7-14.63,15.46-34.44,23.19-59.42,23.19s-43.36-7.21-57.94-21.63c-14.58-14.42-22.44-33.97-23.58-58.64l-.16-8.9Zm52.63,3.28c0,15.62,2.44,27.07,7.34,34.36,4.89,7.29,12.13,10.93,21.71,10.93,18.74,0,28.32-14.42,28.73-43.26v-5.31c0-30.3-9.68-45.44-29.05-45.44-17.6,0-27.12,13.07-28.58,39.2l-.16,9.53Z"/><path class="cls-4" d="M1142.89,118.53l-17.33-1.25c-16.55,0-27.17,5.21-31.86,15.62v106.97h-52.63V70.9h49.35l1.72,21.71c8.85-16.55,21.18-24.83,37.01-24.83,5.62,0,10.51,.62,14.68,1.87l-.94,48.88Z"/><path class="cls-4" d="M1231.78,243c-25.92,0-46.91-7.73-62.94-23.19-16.03-15.46-24.05-35.58-24.05-60.36v-4.37c0-17.28,3.2-32.53,9.6-45.76,6.41-13.22,15.75-23.45,28.03-30.68,12.28-7.24,26.86-10.86,43.73-10.86,23.74,0,42.48,7.37,56.22,22.1,13.74,14.73,20.61,35.27,20.61,61.61v20.46h-104.63c1.87,9.48,5.99,16.92,12.34,22.33,6.35,5.42,14.57,8.12,24.67,8.12,16.66,0,29.67-5.83,39.04-17.49l24.05,28.42c-6.56,9.06-15.85,16.27-27.88,21.63-12.02,5.36-24.96,8.04-38.81,8.04Zm-5.93-134.62c-15.41,0-24.57,10.21-27.49,30.61h53.1v-4.06c.21-8.43-1.93-14.97-6.4-19.6-4.48-4.63-10.88-6.95-19.21-6.95Z"/><path class="cls-4" d="M1513.07,289.39h-214.57v-23.58h214.57v23.58Z"/></g></g></g></svg>